<svg width="16" height="16" viewBox="0 0 64 64" fill="none" xmlns="http://www.w3.org/2000/svg">
    <path d="M25.1845 12.288C22.1552 13.44 19.8085 15.232 18.1445 17.664C16.4805 20.0533 15.6485 22.9973 15.6485 26.496C15.6485 28.0747 15.7978 29.184 16.0965 29.824C16.3952 30.4213 16.5445 30.7627 16.5445 30.848C14.2405 30.848 12.5125 30.3787 11.3605 29.44C10.2512 28.4587 9.6965 26.8587 9.6965 24.64C9.6965 21.9093 10.8058 19.264 13.0245 16.704C15.2858 14.1013 18.1658 12.0107 21.6645 10.432C25.1632 8.81066 28.6618 8 32.1605 8C32.7578 8 33.6112 8.04266 34.7205 8.128L35.2965 47.488L48.7365 8.32H53.2165L35.4245 56H26.2085L25.1845 12.288Z"
          fill="#7239B3"/>
</svg>
