<svg width="40" height="40" viewBox="0 0 40 40" fill="none" xmlns="http://www.w3.org/2000/svg">
    <path d="M15.7576 5.582C13.5803 6.41 11.8936 7.698 10.6976 9.446C9.50161 11.1633 8.90361 13.2793 8.90361 15.794C8.90361 16.9287 9.01094 17.726 9.22561 18.186C9.44028 18.6153 9.54761 18.8607 9.54761 18.922C7.89161 18.922 6.64961 18.5847 5.82161 17.91C5.02428 17.2047 4.62561 16.0547 4.62561 14.46C4.62561 12.4973 5.42294 10.596 7.01761 8.756C8.64294 6.88533 10.7129 5.38267 13.2276 4.248C15.7423 3.08266 18.2569 2.5 20.7716 2.5C21.2009 2.5 21.8143 2.53066 22.6116 2.592L23.0256 30.882L32.6856 2.73H35.9056L23.1176 37H16.4936L15.7576 5.582Z"
          fill="#A56DE2"/>
</svg>
